<svg width="32" height="32" viewBox="0 0 32 32" fill="none" xmlns="http://www.w3.org/2000/svg">
  <rect width="32" height="32" rx="6" fill="#FF9800"/>
  <path fill-rule="evenodd" clip-rule="evenodd" d="M11.53 23.16C19.018 29.55 27.444 31.878 30.346 28.36C32.201 26.112 31.352 22.017 28.542 17.687C28.426 17.491 28.155 17.483 28.013 17.655C27.962 17.717 27.936 17.793 27.936 17.87C27.936 17.931 27.953 17.993 27.986 18.048C29.86 21.166 30.403 23.959 29.137 25.492C26.92 28.18 20 25.979 13.67 20.579C12.207 19.33 10.904 18.02 9.793 16.71C10.676 15.666 11.646 14.601 12.69 13.539C18.629 7.5 24.691 3.872 26.229 5.436C27.354 6.58 25.747 10.186 22.477 14.404C22.336 14.585 22.351 14.846 22.512 15.01C22.693 15.194 22.998 15.199 23.163 14.996C27.838 9.825 30.02 4.98 27.711 2.632C25.482 0.365 17.91 4.389 10.801 11.619C9.848 12.589 8.952 13.566 8.121 14.537C5.658 10.963 4.801 7.655 6.221 5.934C7.44 4.458 10.078 4.457 13.257 5.65C13.392 5.7 13.543 5.661 13.635 5.549C13.69 5.483 13.716 5.403 13.716 5.324C13.716 5.19 13.641 5.06 13.505 5.011C8.981 3.105 5.039 3.032 3.234 5.219C1.189 7.699 2.431 12.42 5.964 17.228C2.056 22.473 0.31 27.136 1.962 28.815C3.386 30.264 6.989 29.144 11.26 26.262C11.5 26.112 11.524 25.773 11.327 25.574C11.181 25.425 10.952 25.4 10.779 25.514C7.879 27.424 5.584 28.187 4.718 27.307C3.687 26.258 4.954 23.139 7.692 19.376C8.824 20.668 10.112 21.945 11.53 23.16Z" fill="white" transform="translate(1, 2)"/>
</svg>
