<svg width="70" height="70" viewBox="0 0 70 70" fill="none" xmlns="http://www.w3.org/2000/svg">
<rect width="70" height="70" rx="35" fill="#151515"/>
<path fill-rule="evenodd" clip-rule="evenodd" d="M30.1968 42.6715C37.6849 49.5177 46.111 52.0123 49.013 48.2424C50.8684 45.8339 50.0193 41.4469 47.2089 36.8073C47.0933 36.5976 46.8221 36.5892 46.6804 36.7735C46.6289 36.8395 46.6036 36.9209 46.6036 37.003C46.6036 37.0691 46.6205 37.135 46.653 37.1941C48.5274 40.5355 49.0701 43.5276 47.8044 45.1706C45.5868 48.0505 38.6582 45.6919 32.3285 39.9059C30.8648 38.5678 29.5626 37.1643 28.4513 35.7608C29.3343 34.6421 30.3046 33.5012 31.3489 32.3634C37.2875 25.8925 43.35 22.006 44.8876 23.6813C46.0124 24.9067 44.4057 28.7709 41.1358 33.2901C40.9949 33.4843 41.0097 33.7638 41.1711 33.9396C41.3522 34.1368 41.6566 34.1422 41.8222 33.9243C46.4972 28.384 48.679 23.193 46.3697 20.677C44.1407 18.2485 36.5694 22.5596 29.4597 30.3064C28.5069 31.3452 27.6113 32.3918 26.7797 33.432C24.3168 29.6032 23.4606 26.0591 24.8806 24.2149C26.099 22.6333 28.7374 22.6325 31.9162 23.9109C32.0508 23.9646 32.2017 23.9224 32.294 23.8026C32.349 23.732 32.3744 23.646 32.3744 23.5616C32.3744 23.418 32.2996 23.279 32.1636 23.226C27.6402 21.1838 23.6981 21.1062 21.8934 23.4495C19.8476 26.106 21.09 31.1648 24.6234 36.3159C20.7151 41.9352 18.9696 46.9311 20.6214 48.7308C22.0449 50.2825 25.648 49.0832 29.9192 45.9952C30.1587 45.8339 30.1827 45.4708 29.9861 45.2573C29.8402 45.0985 29.6112 45.0716 29.4379 45.1936C26.538 47.2397 24.2428 48.0574 23.3774 47.1146C22.3458 45.9906 23.6128 42.6485 26.3506 38.6169C27.483 40.0019 28.7712 41.3693 30.1968 42.6715Z" fill="#FF9800"/>
</svg>
