<svg width="160" height="160" viewBox="0 0 160 160" fill="none" xmlns="http://www.w3.org/2000/svg">
<rect width="160" height="160" rx="48" fill="#05050C"/>
<path d="M35.2147 102.478C35.3032 105.143 36.7558 107.583 39.0683 108.923L76.5658 130.642C78.8783 131.982 81.7106 132.024 84.0556 130.768L84.2812 130.642L121.779 108.923C124.091 107.583 125.544 105.143 125.632 102.478L125.636 102.22V58.7804C125.636 56.1014 124.256 53.6197 122 52.2101L121.779 52.0771L84.2812 30.3575C81.894 28.9748 78.9529 28.9748 76.5658 30.3575L39.0683 52.0771C36.6812 53.4598 35.2107 56.015 35.2106 58.7804V102.22L35.2147 102.478ZM135.923 102.22C135.923 108.672 132.492 114.634 126.922 117.861L89.4247 139.58C83.8547 142.807 76.9922 142.807 71.4222 139.58L33.9247 117.861C28.3547 114.634 24.9235 108.672 24.9235 102.22V58.7804C24.9235 52.3279 28.3547 46.3656 33.9247 43.1393L71.4222 21.4197C76.9922 18.1934 83.8547 18.1934 89.4247 21.4197L126.922 43.1393C132.492 46.3656 135.923 52.3279 135.923 58.7804V102.22Z" fill="white"/>
<path d="M79.1802 37.3148C79.954 36.8861 80.893 36.8861 81.6667 37.3148L115.952 56.3101C117.724 57.2915 117.724 59.846 115.952 60.8274L81.6667 79.8227C80.893 80.2514 79.954 80.2514 79.1802 79.8227L44.8945 60.8274C43.1232 59.846 43.1232 57.2915 44.8946 56.3101L79.1802 37.3148Z" fill="white"/>
</svg>
