<svg width="32" height="32" viewBox="0 0 30 28" fill="none" xmlns="http://www.w3.org/2000/svg">
  <path fill-rule="evenodd" clip-rule="evenodd" d="M10.1968 21.1601C17.6849 27.5499 26.111 29.8781 29.013 26.3596C30.8684 24.1117 30.0193 20.0171 27.2089 15.6868C27.0933 15.4911 26.8221 15.4832 26.6804 15.6552C26.6289 15.7169 26.6036 15.7928 26.6036 15.8695C26.6036 15.9311 26.6205 15.9927 26.653 16.0479C28.5274 19.1665 29.0701 21.9591 27.8044 23.4926C25.5868 26.1805 18.6582 23.9791 12.3285 18.5789C10.8648 17.3299 9.56258 16.02 8.45128 14.7101C9.33426 13.666 10.3046 12.6011 11.3489 11.5392C17.2875 5.49969 23.35 1.87231 24.8876 3.43591C26.0124 4.57959 24.4057 8.18618 21.1358 12.4041C20.9949 12.5854 21.0097 12.8462 21.1711 13.0103C21.3522 13.1944 21.6566 13.1994 21.8222 12.996C26.4972 7.82502 28.679 2.98015 26.3697 0.631885C24.1407 -1.63469 16.5694 2.38897 9.4597 9.61933C8.50695 10.5889 7.61127 11.5657 6.77973 12.5366C4.31681 8.96297 3.4606 5.65519 4.88057 3.93394C6.09899 2.45776 8.73738 2.45704 11.9162 3.65017C12.0508 3.70033 12.2017 3.66091 12.294 3.54913C12.349 3.48321 12.3744 3.40295 12.3744 3.32412C12.3744 3.19012 12.2996 3.06041 12.1636 3.01097C7.64016 1.10484 3.69808 1.03246 1.89335 3.2195C-0.152388 5.6989 1.09 10.4205 4.62335 15.2281C0.715096 20.4728 -1.03044 25.1357 0.62137 26.8154C2.04486 28.2637 5.64799 27.1443 9.91918 24.2622C10.1587 24.1117 10.1827 23.7728 9.98609 23.5735C9.84022 23.4252 9.61121 23.4002 9.43785 23.5141C6.53802 25.4237 4.24282 26.1869 3.37744 25.3069C2.34577 24.2579 3.61282 21.1386 6.35057 17.3758C7.48302 18.6685 8.7712 19.9447 10.1968 21.1601Z" fill="#FF9800"/>
</svg>
